<svg xmlns="http://www.w3.org/2000/svg" xmlns:xlink="http://www.w3.org/1999/xlink" width="600" height="400" viewBox="0 0 2400 1600">
<defs>
  <clipPath id="clip730">
    <rect x="0" y="0" width="2400" height="1600"></rect>
  </clipPath>
</defs>
<path clip-path="url(#clip730)" d="M0 1600 L2400 1600 L2400 0 L0 0  Z" fill="#ffffff" fill-rule="evenodd" fill-opacity="1"></path>
<defs>
  <clipPath id="clip731">
    <rect x="480" y="0" width="1681" height="1600"></rect>
  </clipPath>
</defs>
<path clip-path="url(#clip730)" d="M158.35 1474.16 L2352.76 1474.16 L2352.76 47.2441 L158.35 47.2441  Z" fill="#ffffff" fill-rule="evenodd" fill-opacity="1"></path>
<defs>
  <clipPath id="clip732">
    <rect x="158" y="47" width="2195" height="1428"></rect>
  </clipPath>
</defs>
<polyline clip-path="url(#clip732)" style="stroke:#000000; stroke-linecap:round; stroke-linejoin:round; stroke-width:2; stroke-opacity:0.1; fill:none" points="565.488,1474.16 565.488,47.2441 "></polyline>
<polyline clip-path="url(#clip732)" style="stroke:#000000; stroke-linecap:round; stroke-linejoin:round; stroke-width:2; stroke-opacity:0.1; fill:none" points="1600.59,1474.16 1600.59,47.2441 "></polyline>
<polyline clip-path="url(#clip730)" style="stroke:#000000; stroke-linecap:round; stroke-linejoin:round; stroke-width:4; stroke-opacity:1; fill:none" points="158.35,1474.16 2352.76,1474.16 "></polyline>
<polyline clip-path="url(#clip730)" style="stroke:#000000; stroke-linecap:round; stroke-linejoin:round; stroke-width:4; stroke-opacity:1; fill:none" points="565.488,1474.16 565.488,1455.27 "></polyline>
<polyline clip-path="url(#clip730)" style="stroke:#000000; stroke-linecap:round; stroke-linejoin:round; stroke-width:4; stroke-opacity:1; fill:none" points="1600.59,1474.16 1600.59,1455.27 "></polyline>
<path clip-path="url(#clip730)" d="M515.039 1548.29 L522.678 1548.29 L522.678 1521.92 L514.368 1523.59 L514.368 1519.33 L522.632 1517.66 L527.308 1517.66 L527.308 1548.29 L534.947 1548.29 L534.947 1552.22 L515.039 1552.22 L515.039 1548.29 Z" fill="#000000" fill-rule="nonzero" fill-opacity="1"></path><path clip-path="url(#clip730)" d="M554.391 1520.74 Q550.78 1520.74 548.951 1524.31 Q547.146 1527.85 547.146 1534.98 Q547.146 1542.09 548.951 1545.65 Q550.78 1549.19 554.391 1549.19 Q558.025 1549.19 559.831 1545.65 Q561.66 1542.09 561.66 1534.98 Q561.66 1527.85 559.831 1524.31 Q558.025 1520.74 554.391 1520.74 M554.391 1517.04 Q560.201 1517.04 563.257 1521.65 Q566.335 1526.23 566.335 1534.98 Q566.335 1543.71 563.257 1548.31 Q560.201 1552.9 554.391 1552.9 Q548.581 1552.9 545.502 1548.31 Q542.447 1543.71 542.447 1534.98 Q542.447 1526.23 545.502 1521.65 Q548.581 1517.04 554.391 1517.04 Z" fill="#000000" fill-rule="nonzero" fill-opacity="1"></path><path clip-path="url(#clip730)" d="M566.335 1511.14 L590.447 1511.14 L590.447 1514.34 L566.335 1514.34 L566.335 1511.14 Z" fill="#000000" fill-rule="nonzero" fill-opacity="1"></path><path clip-path="url(#clip730)" d="M607.242 1509.26 Q604.685 1509.26 603.18 1511.01 Q601.694 1512.76 601.694 1515.81 Q601.694 1518.83 603.18 1520.6 Q604.685 1522.35 607.242 1522.35 Q609.8 1522.35 611.286 1520.6 Q612.791 1518.83 612.791 1515.81 Q612.791 1512.76 611.286 1511.01 Q609.8 1509.26 607.242 1509.26 M614.784 1497.35 L614.784 1500.82 Q613.355 1500.14 611.888 1499.78 Q610.44 1499.42 609.01 1499.42 Q605.249 1499.42 603.255 1501.96 Q601.28 1504.5 600.998 1509.64 Q602.108 1508 603.782 1507.13 Q605.456 1506.25 607.468 1506.25 Q611.7 1506.25 614.145 1508.83 Q616.609 1511.39 616.609 1515.81 Q616.609 1520.13 614.051 1522.75 Q611.493 1525.36 607.242 1525.36 Q602.371 1525.36 599.795 1521.64 Q597.218 1517.89 597.218 1510.8 Q597.218 1504.14 600.378 1500.19 Q603.537 1496.23 608.86 1496.23 Q610.289 1496.23 611.737 1496.51 Q613.204 1496.79 614.784 1497.35 Z" fill="#000000" fill-rule="nonzero" fill-opacity="1"></path><path clip-path="url(#clip730)" d="M1550.47 1548.29 L1558.1 1548.29 L1558.1 1521.92 L1549.79 1523.59 L1549.79 1519.33 L1558.06 1517.66 L1562.73 1517.66 L1562.73 1548.29 L1570.37 1548.29 L1570.37 1552.22 L1550.47 1552.22 L1550.47 1548.29 Z" fill="#000000" fill-rule="nonzero" fill-opacity="1"></path><path clip-path="url(#clip730)" d="M1589.82 1520.74 Q1586.21 1520.74 1584.38 1524.31 Q1582.57 1527.85 1582.57 1534.98 Q1582.57 1542.09 1584.38 1545.65 Q1586.21 1549.19 1589.82 1549.19 Q1593.45 1549.19 1595.26 1545.65 Q1597.09 1542.09 1597.09 1534.98 Q1597.09 1527.85 1595.26 1524.31 Q1593.45 1520.74 1589.82 1520.74 M1589.82 1517.04 Q1595.63 1517.04 1598.68 1521.65 Q1601.76 1526.23 1601.76 1534.98 Q1601.76 1543.71 1598.68 1548.31 Q1595.63 1552.9 1589.82 1552.9 Q1584.01 1552.9 1580.93 1548.31 Q1577.87 1543.71 1577.87 1534.98 Q1577.87 1526.23 1580.93 1521.65 Q1584.01 1517.04 1589.82 1517.04 Z" fill="#000000" fill-rule="nonzero" fill-opacity="1"></path><path clip-path="url(#clip730)" d="M1601.76 1511.14 L1625.87 1511.14 L1625.87 1514.34 L1601.76 1514.34 L1601.76 1511.14 Z" fill="#000000" fill-rule="nonzero" fill-opacity="1"></path><path clip-path="url(#clip730)" d="M1645.58 1509.67 Q1648.31 1510.26 1649.83 1512.1 Q1651.38 1513.94 1651.38 1516.65 Q1651.38 1520.81 1648.52 1523.08 Q1645.66 1525.36 1640.39 1525.36 Q1638.62 1525.36 1636.74 1525 Q1634.88 1524.66 1632.89 1523.97 L1632.89 1520.3 Q1634.47 1521.22 1636.35 1521.69 Q1638.23 1522.16 1640.28 1522.16 Q1643.85 1522.16 1645.72 1520.75 Q1647.6 1519.34 1647.6 1516.65 Q1647.6 1514.17 1645.85 1512.78 Q1644.12 1511.37 1641.01 1511.37 L1637.74 1511.37 L1637.74 1508.24 L1641.16 1508.24 Q1643.97 1508.24 1645.45 1507.13 Q1646.94 1506.01 1646.94 1503.9 Q1646.94 1501.74 1645.4 1500.59 Q1643.87 1499.42 1641.01 1499.42 Q1639.45 1499.42 1637.67 1499.76 Q1635.88 1500.1 1633.73 1500.82 L1633.73 1497.43 Q1635.9 1496.83 1637.78 1496.53 Q1639.68 1496.23 1641.35 1496.23 Q1645.68 1496.23 1648.2 1498.2 Q1650.72 1500.16 1650.72 1503.51 Q1650.72 1505.84 1649.38 1507.45 Q1648.05 1509.05 1645.58 1509.67 Z" fill="#000000" fill-rule="nonzero" fill-opacity="1"></path><polyline clip-path="url(#clip732)" style="stroke:#000000; stroke-linecap:round; stroke-linejoin:round; stroke-width:2; stroke-opacity:0.1; fill:none" points="158.35,1039.83 2352.76,1039.83 "></polyline>
<polyline clip-path="url(#clip732)" style="stroke:#000000; stroke-linecap:round; stroke-linejoin:round; stroke-width:2; stroke-opacity:0.1; fill:none" points="158.35,448.912 2352.76,448.912 "></polyline>
<polyline clip-path="url(#clip730)" style="stroke:#000000; stroke-linecap:round; stroke-linejoin:round; stroke-width:4; stroke-opacity:1; fill:none" points="158.35,1474.16 158.35,47.2441 "></polyline>
<polyline clip-path="url(#clip730)" style="stroke:#000000; stroke-linecap:round; stroke-linejoin:round; stroke-width:4; stroke-opacity:1; fill:none" points="158.35,1039.83 177.248,1039.83 "></polyline>
<polyline clip-path="url(#clip730)" style="stroke:#000000; stroke-linecap:round; stroke-linejoin:round; stroke-width:4; stroke-opacity:1; fill:none" points="158.35,448.912 177.248,448.912 "></polyline>
<path clip-path="url(#clip730)" d="M52.5662 1059.63 L60.205 1059.63 L60.205 1033.26 L51.8949 1034.93 L51.8949 1030.67 L60.1587 1029 L64.8346 1029 L64.8346 1059.63 L72.4735 1059.63 L72.4735 1063.56 L52.5662 1063.56 L52.5662 1059.63 Z" fill="#000000" fill-rule="nonzero" fill-opacity="1"></path><path clip-path="url(#clip730)" d="M91.9178 1032.08 Q88.3067 1032.08 86.478 1035.64 Q84.6725 1039.19 84.6725 1046.32 Q84.6725 1053.42 86.478 1056.99 Q88.3067 1060.53 91.9178 1060.53 Q95.5521 1060.53 97.3576 1056.99 Q99.1863 1053.42 99.1863 1046.32 Q99.1863 1039.19 97.3576 1035.64 Q95.5521 1032.08 91.9178 1032.08 M91.9178 1028.38 Q97.728 1028.38 100.784 1032.98 Q103.862 1037.57 103.862 1046.32 Q103.862 1055.04 100.784 1059.65 Q97.728 1064.23 91.9178 1064.23 Q86.1077 1064.23 83.029 1059.65 Q79.9735 1055.04 79.9735 1046.32 Q79.9735 1037.57 83.029 1032.98 Q86.1077 1028.38 91.9178 1028.38 Z" fill="#000000" fill-rule="nonzero" fill-opacity="1"></path><path clip-path="url(#clip730)" d="M116.557 1021.01 Q119.285 1021.59 120.808 1023.44 Q122.35 1025.28 122.35 1027.99 Q122.35 1032.14 119.491 1034.42 Q116.633 1036.7 111.367 1036.7 Q109.599 1036.7 107.718 1036.34 Q105.856 1036 103.862 1035.3 L103.862 1031.64 Q105.442 1032.56 107.323 1033.03 Q109.204 1033.5 111.254 1033.5 Q114.827 1033.5 116.689 1032.09 Q118.57 1030.68 118.57 1027.99 Q118.57 1025.5 116.821 1024.11 Q115.09 1022.7 111.987 1022.7 L108.715 1022.7 L108.715 1019.58 L112.138 1019.58 Q114.94 1019.58 116.426 1018.47 Q117.912 1017.34 117.912 1015.24 Q117.912 1013.07 116.369 1011.93 Q114.846 1010.76 111.987 1010.76 Q110.426 1010.76 108.639 1011.1 Q106.853 1011.44 104.709 1012.15 L104.709 1008.77 Q106.871 1008.16 108.752 1007.86 Q110.652 1007.56 112.326 1007.56 Q116.651 1007.56 119.172 1009.54 Q121.692 1011.49 121.692 1014.84 Q121.692 1017.17 120.357 1018.79 Q119.021 1020.39 116.557 1021.01 Z" fill="#000000" fill-rule="nonzero" fill-opacity="1"></path><path clip-path="url(#clip730)" d="M51.6634 468.704 L59.3023 468.704 L59.3023 442.338 L50.9921 444.005 L50.9921 439.746 L59.256 438.079 L63.9319 438.079 L63.9319 468.704 L71.5707 468.704 L71.5707 472.639 L51.6634 472.639 L51.6634 468.704 Z" fill="#000000" fill-rule="nonzero" fill-opacity="1"></path><path clip-path="url(#clip730)" d="M91.0151 441.158 Q87.404 441.158 85.5753 444.723 Q83.7697 448.264 83.7697 455.394 Q83.7697 462.5 85.5753 466.065 Q87.404 469.607 91.0151 469.607 Q94.6493 469.607 96.4548 466.065 Q98.2835 462.5 98.2835 455.394 Q98.2835 448.264 96.4548 444.723 Q94.6493 441.158 91.0151 441.158 M91.0151 437.454 Q96.8252 437.454 99.8808 442.061 Q102.959 446.644 102.959 455.394 Q102.959 464.121 99.8808 468.727 Q96.8252 473.311 91.0151 473.311 Q85.2049 473.311 82.1262 468.727 Q79.0707 464.121 79.0707 455.394 Q79.0707 446.644 82.1262 442.061 Q85.2049 437.454 91.0151 437.454 Z" fill="#000000" fill-rule="nonzero" fill-opacity="1"></path><path clip-path="url(#clip730)" d="M112.984 429.675 Q110.426 429.675 108.922 431.424 Q107.436 433.173 107.436 436.22 Q107.436 439.248 108.922 441.016 Q110.426 442.765 112.984 442.765 Q115.542 442.765 117.028 441.016 Q118.532 439.248 118.532 436.22 Q118.532 433.173 117.028 431.424 Q115.542 429.675 112.984 429.675 M120.526 417.769 L120.526 421.23 Q119.097 420.553 117.63 420.196 Q116.181 419.838 114.752 419.838 Q110.99 419.838 108.997 422.377 Q107.022 424.916 106.74 430.051 Q107.849 428.415 109.523 427.55 Q111.197 426.666 113.21 426.666 Q117.441 426.666 119.886 429.242 Q122.35 431.8 122.35 436.22 Q122.35 440.546 119.792 443.16 Q117.235 445.774 112.984 445.774 Q108.113 445.774 105.536 442.05 Q102.959 438.308 102.959 431.217 Q102.959 424.559 106.119 420.609 Q109.279 416.641 114.601 416.641 Q116.031 416.641 117.479 416.923 Q118.946 417.205 120.526 417.769 Z" fill="#000000" fill-rule="nonzero" fill-opacity="1"></path><polyline clip-path="url(#clip732)" style="stroke:#009af9; stroke-linecap:round; stroke-linejoin:round; stroke-width:4; stroke-opacity:1; fill:none" points="2290.65,1433.78 1945.62,1271.07 1600.59,1122.6 1255.55,1054.14 910.521,1007.87 565.488,975.392 220.456,87.6286 "></polyline>
<polyline clip-path="url(#clip732)" style="stroke:#e26f46; stroke-linecap:round; stroke-linejoin:round; stroke-width:4; stroke-opacity:1; fill:none" stroke-dasharray="16, 10" points="2290.65,1269.47 1945.62,1072.5 1600.59,875.523 1255.55,678.55 910.521,481.576 565.488,284.602 220.456,87.6286 "></polyline>
<path clip-path="url(#clip730)" d="M1975.11 250.328 L2279.61 250.328 L2279.61 94.8081 L1975.11 94.8081  Z" fill="#ffffff" fill-rule="evenodd" fill-opacity="1"></path>
<polyline clip-path="url(#clip730)" style="stroke:#000000; stroke-linecap:round; stroke-linejoin:round; stroke-width:4; stroke-opacity:1; fill:none" points="1975.11,250.328 2279.61,250.328 2279.61,94.8081 1975.11,94.8081 1975.11,250.328 "></polyline>
<polyline clip-path="url(#clip730)" style="stroke:#009af9; stroke-linecap:round; stroke-linejoin:round; stroke-width:4; stroke-opacity:1; fill:none" points="1999.49,146.648 2145.78,146.648 "></polyline>
<path clip-path="url(#clip730)" d="M2191.88 140.347 Q2191.88 141.682 2191.06 142.479 Q2190.26 143.275 2189.25 143.275 Q2188.36 143.275 2187.89 142.76 Q2187.43 142.245 2187.43 141.589 Q2187.43 141.308 2187.54 140.956 Q2187.66 140.582 2187.92 140.136 Q2188.2 139.691 2188.78 139.364 Q2189.37 139.036 2190.17 138.989 Q2190 138.825 2189.96 138.801 Q2189.6 138.52 2188.95 138.427 Q2188.85 138.38 2188.53 138.38 Q2186.91 138.38 2185.27 139.574 Q2183.65 140.745 2181.66 142.971 Q2179.16 145.571 2177.54 146.531 Q2184.64 147.468 2184.64 151.567 Q2184.64 152.246 2184.45 153.066 Q2184.08 154.612 2184.08 155.736 Q2184.08 157.984 2185.6 157.984 Q2187.07 157.984 2188.01 156.485 Q2188.97 154.986 2189.77 152.059 Q2189.89 151.52 2190 151.356 Q2190.12 151.192 2190.45 151.192 Q2191.03 151.192 2191.03 151.66 Q2190.49 154.401 2189.3 156.509 Q2187.78 159.062 2185.51 159.062 Q2183.61 159.062 2182.34 157.75 Q2181.1 156.415 2181.1 154.307 Q2181.1 153.792 2181.29 152.621 Q2181.43 152.152 2181.43 151.613 Q2181.43 150.513 2180.82 149.693 Q2180.21 148.85 2179.23 148.428 Q2178.24 148.006 2177.42 147.819 Q2176.63 147.608 2175.86 147.538 Q2173.51 157.446 2173.19 158.055 Q2172.97 158.476 2172.51 158.757 Q2172.04 159.062 2171.55 159.062 Q2171.08 159.062 2170.61 158.734 Q2170.16 158.429 2170.16 157.703 Q2170.16 157.329 2170.35 156.649 L2177.31 129.011 L2177.45 128.074 Q2177.45 127.793 2177.33 127.652 Q2177.24 127.488 2176.68 127.371 Q2176.14 127.254 2175.06 127.254 Q2174.61 127.254 2174.4 127.231 Q2174.22 127.207 2174.05 127.09 Q2173.89 126.95 2173.89 126.669 Q2173.89 126.27 2174.05 126.06 Q2174.24 125.825 2174.38 125.779 Q2174.52 125.732 2174.8 125.708 Q2175.2 125.685 2176.53 125.568 Q2177.87 125.427 2179.02 125.334 Q2180.17 125.24 2180.66 125.24 Q2180.94 125.24 2181.08 125.38 Q2181.24 125.497 2181.27 125.638 L2181.29 125.755 L2176.3 145.992 Q2178.36 145.172 2181.62 141.542 Q2185.39 137.326 2188.62 137.326 Q2190.14 137.326 2191.01 138.263 Q2191.88 139.176 2191.88 140.347 Z" fill="#000000" fill-rule="nonzero" fill-opacity="1"></path><path clip-path="url(#clip730)" d="M2198.75 146.531 Q2198.75 138.427 2201.77 131.892 Q2203.06 129.151 2204.86 126.856 Q2206.67 124.561 2207.86 123.553 Q2209.06 122.546 2209.38 122.546 Q2209.85 122.546 2209.88 123.015 Q2209.88 123.249 2209.24 123.834 Q2201.51 131.704 2201.54 146.531 Q2201.54 161.404 2209.06 168.97 Q2209.88 169.789 2209.88 170.047 Q2209.88 170.515 2209.38 170.515 Q2209.06 170.515 2207.91 169.555 Q2206.76 168.595 2204.98 166.393 Q2203.2 164.191 2201.91 161.498 Q2198.75 154.963 2198.75 146.531 Z" fill="#000000" fill-rule="nonzero" fill-opacity="1"></path><path clip-path="url(#clip730)" d="M2234.41 156.602 Q2234.45 156.766 2234.17 157.071 Q2233.91 157.352 2233.37 157.703 Q2232.86 158.055 2232.18 158.359 Q2231.5 158.664 2230.59 158.851 Q2229.7 159.062 2228.81 159.062 Q2224.99 159.062 2221.9 156.509 Q2218.83 153.932 2217.87 149.974 Q2217.17 147.233 2217.68 144.985 Q2218.22 142.736 2219.6 141.167 Q2221.01 139.574 2223.05 138.708 Q2225.11 137.841 2227.45 137.841 L2229.14 137.841 Q2229.65 137.841 2229.91 137.865 Q2230.17 137.888 2230.42 138.052 Q2230.68 138.192 2230.77 138.52 Q2230.87 138.895 2230.63 139.106 Q2230.42 139.293 2230.17 139.317 Q2229.91 139.34 2229.37 139.34 L2227.89 139.34 Q2224.73 139.34 2223.12 141.191 Q2221.52 143.017 2221.41 146.203 L2229.18 146.203 Q2229.6 146.203 2229.77 146.226 Q2229.93 146.226 2230.19 146.273 Q2230.45 146.32 2230.56 146.484 Q2230.68 146.625 2230.73 146.859 Q2230.73 147.023 2230.77 147.14 Q2230.82 147.257 2230.7 147.351 Q2230.61 147.421 2230.59 147.491 Q2230.56 147.538 2230.4 147.585 Q2230.24 147.608 2230.17 147.632 Q2230.1 147.655 2229.91 147.679 Q2229.72 147.679 2229.6 147.679 Q2229.51 147.679 2229.32 147.679 L2221.41 147.679 Q2221.41 149.787 2221.9 151.754 Q2222.65 154.776 2224.5 156.392 Q2226.37 157.984 2228.6 157.984 Q2230.94 157.984 2233.21 156.228 Q2233.37 156.111 2233.52 156.04 Q2233.68 155.947 2233.75 155.947 L2233.8 155.923 Q2234.17 155.923 2234.41 156.602 Z" fill="#000000" fill-rule="nonzero" fill-opacity="1"></path><path clip-path="url(#clip730)" d="M2236.81 170.047 Q2236.81 169.813 2237.42 169.227 Q2245.15 161.357 2245.15 146.531 Q2245.15 131.658 2237.72 124.139 Q2236.81 123.272 2236.81 123.015 Q2236.81 122.546 2237.28 122.546 Q2237.61 122.546 2238.76 123.507 Q2239.93 124.467 2241.68 126.669 Q2243.46 128.87 2244.77 131.564 Q2247.94 138.099 2247.94 146.531 Q2247.94 154.635 2244.92 161.17 Q2243.63 163.91 2241.82 166.206 Q2240.02 168.501 2238.83 169.508 Q2237.63 170.515 2237.28 170.515 Q2236.81 170.515 2236.81 170.047 Z" fill="#000000" fill-rule="nonzero" fill-opacity="1"></path><polyline clip-path="url(#clip730)" style="stroke:#e26f46; stroke-linecap:round; stroke-linejoin:round; stroke-width:4; stroke-opacity:1; fill:none" stroke-dasharray="16, 10" points="1999.49,198.488 2145.78,198.488 "></polyline>
<path clip-path="url(#clip730)" d="M2187.4 214.296 Q2187.45 214.46 2187.17 214.764 Q2186.91 215.046 2186.37 215.397 Q2185.86 215.748 2185.18 216.053 Q2184.5 216.357 2183.58 216.545 Q2182.69 216.755 2181.8 216.755 Q2177.99 216.755 2174.89 214.202 Q2171.83 211.626 2170.87 207.667 Q2170.16 204.927 2170.68 202.678 Q2171.22 200.43 2172.6 198.861 Q2174 197.268 2176.04 196.401 Q2178.1 195.535 2180.45 195.535 L2182.13 195.535 Q2182.65 195.535 2182.91 195.558 Q2183.16 195.581 2183.42 195.745 Q2183.68 195.886 2183.77 196.214 Q2183.87 196.589 2183.63 196.799 Q2183.42 196.987 2183.16 197.01 Q2182.91 197.034 2182.37 197.034 L2180.89 197.034 Q2177.73 197.034 2176.11 198.884 Q2174.52 200.711 2174.4 203.896 L2182.18 203.896 Q2182.6 203.896 2182.76 203.92 Q2182.93 203.92 2183.19 203.967 Q2183.44 204.014 2183.56 204.177 Q2183.68 204.318 2183.73 204.552 Q2183.73 204.716 2183.77 204.833 Q2183.82 204.95 2183.7 205.044 Q2183.61 205.114 2183.58 205.185 Q2183.56 205.232 2183.4 205.278 Q2183.23 205.302 2183.16 205.325 Q2183.09 205.349 2182.91 205.372 Q2182.72 205.372 2182.6 205.372 Q2182.51 205.372 2182.32 205.372 L2174.4 205.372 Q2174.4 207.48 2174.89 209.448 Q2175.64 212.469 2177.49 214.085 Q2179.37 215.678 2181.59 215.678 Q2183.94 215.678 2186.21 213.921 Q2186.37 213.804 2186.51 213.734 Q2186.68 213.64 2186.75 213.64 L2186.79 213.617 Q2187.17 213.617 2187.4 214.296 Z" fill="#000000" fill-rule="nonzero" fill-opacity="1"></path><path clip-path="url(#clip730)" d="M2214.56 193.507 Q2214.76 193.703 2214.76 193.982 Q2214.76 194.261 2214.56 194.458 Q2214.36 194.654 2214.08 194.654 L2193.07 194.654 Q2192.79 194.654 2192.59 194.458 Q2192.39 194.261 2192.39 193.982 Q2192.39 193.703 2192.59 193.507 Q2192.79 193.31 2193.07 193.31 L2214.08 193.31 Q2214.36 193.31 2214.56 193.507 Z" fill="#000000" fill-rule="nonzero" fill-opacity="1"></path><path clip-path="url(#clip730)" d="M2218.26 183.21 L2218.26 182.161 Q2222.29 182.161 2224.37 180.013 Q2224.95 180.013 2225.04 180.144 Q2225.14 180.275 2225.14 180.882 L2225.14 199.721 Q2225.14 200.721 2225.63 201.032 Q2226.13 201.344 2228.27 201.344 L2229.34 201.344 L2229.34 202.377 Q2228.16 202.278 2223.9 202.278 Q2219.63 202.278 2218.47 202.377 L2218.47 201.344 L2219.53 201.344 Q2221.65 201.344 2222.16 201.049 Q2222.67 200.737 2222.67 199.721 L2222.67 182.325 Q2220.91 183.21 2218.26 183.21 Z" fill="#000000" fill-rule="nonzero" fill-opacity="1"></path></svg>